<svg version="1.1" viewBox="0.0 0.0 860.0 620.0" fill="none" stroke="none" stroke-linecap="square" stroke-miterlimit="10" xmlns:xlink="http://www.w3.org/1999/xlink" xmlns="http://www.w3.org/2000/svg">
<clipPath id="p.0">
<path d="m0 0l960.0 0l0 720.0l-960.0 0l0 -720.0z" clip-rule="nonzero"/>
</clipPath>
<g clip-path="url(#p.0)">
<path fill="#000000" fill-opacity="0.0" d="m0 0l960.0 0l0 720.0l-960.0 0z" fill-rule="evenodd"/><path fill="#fff2cc" d="m373.15222 327.12598l0 0c0 -42.973846 33.236694 -77.81102 74.23624 -77.81102c40.99951 0 74.23624 34.837173 74.23624 77.81102c0 42.973846 -33.236725 77.811035 -74.23624 77.811035c-40.999542 0 -74.23624 -34.83719 -74.23624 -77.811035z" fill-rule="evenodd"/>
<path fill="#fbc1a3" d="m415.87244 303.85474c0 -4.4764404 3.4621582 -8.105316 7.7329407 -8.105316c4.2707825 0 7.7329407 3.6288757 7.7329407 8.105316c0 4.4764404 -3.4621582 8.105316 -7.7329407 8.105316c-4.2707825 0 -7.7329407 -3.6288757 -7.7329407 -8.105316m47.566162 0c0 -4.4764404 3.4621582 -8.105316 7.7329407 -8.105316c4.2707825 0 7.7329407 3.6288757 7.7329407 8.105316c0 4.4764404 -3.4621582 8.105316 -7.7329407 8.105316c-4.2707825 0 -7.7329407 -3.6288757 -7.7329407 -8.105316" fill-rule="evenodd"/>
<path fill="#000000" fill-opacity="0.0" d="m407.15195 361.05988q40.23651 28.964386 80.37906 0" fill-rule="evenodd"/><path fill="#000000" fill-opacity="0.0" d="m373.15222 327.12598l0 0c0 -42.973846 33.236694 -77.81102 74.23624 -77.81102c40.99951 0 74.23624 34.837173 74.23624 77.81102c0 42.973846 -33.236725 77.811035 -74.23624 77.811035c-40.999542 0 -74.23624 -34.83719 -74.23624 -77.811035z" fill-rule="evenodd"/><path stroke="#000000" stroke-width="1.0" stroke-linejoin="round" stroke-linecap="butt" d="m415.87244 303.85474c0 -4.4764404 3.4621582 -8.105316 7.7329407 -8.105316c4.2707825 0 7.7329407 3.6288757 7.7329407 8.105316c0 4.4764404 -3.4621582 8.105316 -7.7329407 8.105316c-4.2707825 0 -7.7329407 -3.6288757 -7.7329407 -8.105316m47.566162 0c0 -4.4764404 3.4621582 -8.105316 7.7329407 -8.105316c4.2707825 0 7.7329407 3.6288757 7.7329407 8.105316c0 4.4764404 -3.4621582 8.105316 -7.7329407 8.105316c-4.2707825 0 -7.7329407 -3.6288757 -7.7329407 -8.105316" fill-rule="evenodd"/><path stroke="#000000" stroke-width="1.0" stroke-linejoin="round" stroke-linecap="butt" d="m407.15195 361.05988q40.23651 28.964386 80.37906 0" fill-rule="evenodd"/><path stroke="#000000" stroke-width="1.0" stroke-linejoin="round" stroke-linecap="butt" d="m373.15222 327.12598l0 0c0 -42.973846 33.236694 -77.81102 74.23624 -77.81102c40.99951 0 74.23624 34.837173 74.23624 77.81102c0 42.973846 -33.236725 77.811035 -74.23624 77.811035c-40.999542 0 -74.23624 -34.83719 -74.23624 -77.811035z" fill-rule="evenodd"/></g>





</svg>
